<svg width="76" height="15" viewBox="0 0 76 15" fill="none" xmlns="http://www.w3.org/2000/svg">
<path d="M7.35693 10.5859C7.35693 9.91178 7.17448 9.39535 6.80957 9.03662C6.44466 8.6779 5.78597 8.32845 4.8335 7.98828C3.88102 7.64811 3.1512 7.29248 2.64404 6.92139C2.14307 6.54411 1.76579 6.11735 1.51221 5.64111C1.26481 5.15869 1.14111 4.60824 1.14111 3.98975C1.14111 2.91976 1.49674 2.03841 2.20801 1.3457C2.92546 0.652995 3.86247 0.306641 5.01904 0.306641C5.81071 0.306641 6.51579 0.486003 7.13428 0.844727C7.75277 1.19727 8.229 1.68896 8.56299 2.31982C8.89697 2.95068 9.06396 3.64339 9.06396 4.39795H7.35693C7.35693 3.56299 7.15592 2.91667 6.75391 2.45898C6.35189 2.0013 5.7736 1.77246 5.01904 1.77246C4.33252 1.77246 3.80062 1.96419 3.42334 2.34766C3.04606 2.73112 2.85742 3.26921 2.85742 3.96191C2.85742 4.53092 3.06152 5.00716 3.46973 5.39062C3.87793 5.77409 4.50879 6.11735 5.3623 6.42041C6.69206 6.85954 7.64144 7.40072 8.21045 8.04395C8.78564 8.68717 9.07324 9.52832 9.07324 10.5674C9.07324 11.6621 8.71761 12.5404 8.00635 13.2021C7.29508 13.8577 6.32715 14.1855 5.10254 14.1855C4.31706 14.1855 3.59033 14.0155 2.92236 13.6753C2.26058 13.3289 1.73796 12.8465 1.35449 12.228C0.977214 11.6034 0.788574 10.889 0.788574 10.085H2.49561C2.49561 10.9199 2.72754 11.5693 3.19141 12.0332C3.66146 12.4971 4.2985 12.729 5.10254 12.729C5.85091 12.729 6.41374 12.5373 6.79102 12.1538C7.16829 11.7703 7.35693 11.2477 7.35693 10.5859ZM16.1982 13.1187C15.654 13.8299 14.8592 14.1855 13.814 14.1855C12.9048 14.1855 12.2183 13.8732 11.7544 13.2485C11.2905 12.6177 11.0555 11.7023 11.0493 10.5024V3.96191H12.6821V10.3818C12.6821 11.9466 13.1522 12.729 14.0923 12.729C15.0881 12.729 15.7746 12.2837 16.1519 11.3931V3.96191H17.7939V14H16.2354L16.1982 13.1187ZM24.4087 5.50195C24.1799 5.45866 23.9325 5.43701 23.6665 5.43701C22.8254 5.43701 22.2378 5.89779 21.9038 6.81934V14H20.2617V3.96191H21.8574L21.8853 4.98242C22.3244 4.17839 22.946 3.77637 23.75 3.77637C24.0098 3.77637 24.2262 3.81966 24.3994 3.90625L24.4087 5.50195ZM29.4556 14.1855C28.2062 14.1855 27.2476 13.8145 26.5796 13.0723C25.9116 12.3239 25.5715 11.2292 25.5591 9.78809V8.57275C25.5591 7.07601 25.8838 5.90397 26.5332 5.05664C27.1888 4.20312 28.1011 3.77637 29.27 3.77637C30.4451 3.77637 31.3234 4.15055 31.9048 4.89893C32.4862 5.6473 32.783 6.81315 32.7954 8.39648V9.47266H27.1919V9.70459C27.1919 10.7808 27.3929 11.5632 27.7949 12.0518C28.2031 12.5404 28.7876 12.7847 29.5483 12.7847C30.0308 12.7847 30.4544 12.695 30.8193 12.5156C31.1904 12.3301 31.5368 12.0394 31.8584 11.6436L32.7119 12.6826C32.0007 13.6846 30.9152 14.1855 29.4556 14.1855ZM29.27 5.18652C28.5897 5.18652 28.0856 5.42155 27.7578 5.8916C27.43 6.35547 27.2445 7.0791 27.2012 8.0625H31.1533V7.83984C31.11 6.88737 30.9368 6.20703 30.6338 5.79883C30.3369 5.39062 29.8823 5.18652 29.27 5.18652Z" fill="#3F8A11"/>
<path d="M41.2656 8.03467H36.7012V14H35.0034V0.492188H42.0356V1.95801H36.7012V6.57812H41.2656V8.03467ZM52.918 8.43359C52.918 10.2767 52.5252 11.6961 51.7397 12.6919C50.9543 13.6877 49.8379 14.1855 48.3906 14.1855C46.999 14.1855 45.8981 13.7031 45.0879 12.7383C44.2839 11.7673 43.8664 10.3973 43.8354 8.62842V6.08643C43.8354 4.28044 44.2344 2.86719 45.0322 1.84668C45.8301 0.819987 46.9434 0.306641 48.3721 0.306641C49.7946 0.306641 50.9017 0.79834 51.6934 1.78174C52.4912 2.75895 52.8994 4.15674 52.918 5.9751V8.43359ZM51.2202 6.06787C51.2202 4.63916 50.9852 3.57845 50.5151 2.88574C50.0513 2.18685 49.3369 1.8374 48.3721 1.8374C47.4382 1.8374 46.73 2.18994 46.2476 2.89502C45.7713 3.6001 45.5301 4.63916 45.5239 6.01221V8.43359C45.5239 9.81283 45.762 10.8643 46.2383 11.5879C46.7207 12.3115 47.4382 12.6733 48.3906 12.6733C49.3431 12.6733 50.0482 12.3394 50.5059 11.6714C50.9635 11.0034 51.2017 9.97982 51.2202 8.60059V6.06787ZM64.3291 8.43359C64.3291 10.2767 63.9364 11.6961 63.1509 12.6919C62.3654 13.6877 61.249 14.1855 59.8018 14.1855C58.4102 14.1855 57.3092 13.7031 56.499 12.7383C55.695 11.7673 55.2775 10.3973 55.2466 8.62842V6.08643C55.2466 4.28044 55.6455 2.86719 56.4434 1.84668C57.2412 0.819987 58.3545 0.306641 59.7832 0.306641C61.2057 0.306641 62.3128 0.79834 63.1045 1.78174C63.9023 2.75895 64.3105 4.15674 64.3291 5.9751V8.43359ZM62.6313 6.06787C62.6313 4.63916 62.3963 3.57845 61.9263 2.88574C61.4624 2.18685 60.748 1.8374 59.7832 1.8374C58.8493 1.8374 58.1411 2.18994 57.6587 2.89502C57.1825 3.6001 56.9412 4.63916 56.9351 6.01221V8.43359C56.9351 9.81283 57.1732 10.8643 57.6494 11.5879C58.1318 12.3115 58.8493 12.6733 59.8018 12.6733C60.7542 12.6733 61.4593 12.3394 61.917 11.6714C62.3747 11.0034 62.6128 9.97982 62.6313 8.60059V6.06787ZM66.9546 14V0.492188H70.1738C71.751 0.492188 72.9756 0.986979 73.8477 1.97656C74.7197 2.95996 75.1558 4.34538 75.1558 6.13281V8.39648C75.1558 10.1839 74.7135 11.5662 73.8291 12.5435C72.9447 13.5145 71.6613 14 69.979 14H66.9546ZM68.6523 1.95801V12.5435H70.0161C71.2098 12.5435 72.0819 12.2033 72.6323 11.5229C73.1828 10.8364 73.4642 9.8221 73.4766 8.47998V6.08643C73.4766 4.6639 73.2013 3.62174 72.6509 2.95996C72.1066 2.29199 71.2809 1.95801 70.1738 1.95801H68.6523Z" fill="#EC441F"/>
</svg>
